<mxfile host="65bd71144e">
    <diagram id="PPb1VCACWrMPJaWInrDN" name="Page-1">
        <mxGraphModel dx="1119" dy="544" grid="1" gridSize="10" guides="1" tooltips="1" connect="1" arrows="1" fold="1" page="1" pageScale="1" pageWidth="850" pageHeight="1100" math="0" shadow="0">
            <root>
                <mxCell id="0"/>
                <mxCell id="1" parent="0"/>
                <mxCell id="2" value="inicio" style="ellipse;whiteSpace=wrap;html=1;fillColor=#60a917;fontColor=#ffffff;strokeColor=#2D7600;" parent="1" vertex="1">
                    <mxGeometry x="365" y="120" width="120" height="80" as="geometry"/>
                </mxCell>
                <mxCell id="3" value="a,b,c" style="shape=parallelogram;perimeter=parallelogramPerimeter;whiteSpace=wrap;html=1;fixedSize=1;fillColor=#6a00ff;fontColor=#ffffff;strokeColor=#3700CC;" parent="1" vertex="1">
                    <mxGeometry x="365" y="250" width="120" height="60" as="geometry"/>
                </mxCell>
                <mxCell id="4" value="a*c&amp;lt;0" style="rhombus;whiteSpace=wrap;html=1;fillColor=#d80073;fontColor=#ffffff;strokeColor=#A50040;" parent="1" vertex="1">
                    <mxGeometry x="385" y="360" width="80" height="80" as="geometry"/>
                </mxCell>
                <mxCell id="5" value="la ecuacion no tiene solucion en los reales&amp;nbsp;" style="shape=document;whiteSpace=wrap;html=1;boundedLbl=1;fillColor=#1ba1e2;fontColor=#ffffff;strokeColor=#006EAF;" parent="1" vertex="1">
                    <mxGeometry x="265" y="500" width="120" height="80" as="geometry"/>
                </mxCell>
                <mxCell id="7" value="fin" style="ellipse;whiteSpace=wrap;html=1;fillColor=#a20025;fontColor=#ffffff;strokeColor=#6F0000;" parent="1" vertex="1">
                    <mxGeometry x="365" y="740" width="120" height="80" as="geometry"/>
                </mxCell>
                <mxCell id="8" value="" style="endArrow=classic;html=1;" parent="1" source="2" target="3" edge="1">
                    <mxGeometry width="50" height="50" relative="1" as="geometry">
                        <mxPoint x="330" y="440" as="sourcePoint"/>
                        <mxPoint x="380" y="390" as="targetPoint"/>
                    </mxGeometry>
                </mxCell>
                <mxCell id="9" value="" style="endArrow=classic;html=1;" parent="1" source="3" target="4" edge="1">
                    <mxGeometry width="50" height="50" relative="1" as="geometry">
                        <mxPoint x="435" y="210" as="sourcePoint"/>
                        <mxPoint x="435" y="260" as="targetPoint"/>
                    </mxGeometry>
                </mxCell>
                <mxCell id="11" value="" style="edgeStyle=segmentEdgeStyle;endArrow=classic;html=1;" parent="1" source="4" target="5" edge="1">
                    <mxGeometry width="50" height="50" relative="1" as="geometry">
                        <mxPoint x="330" y="440" as="sourcePoint"/>
                        <mxPoint x="380" y="390" as="targetPoint"/>
                    </mxGeometry>
                </mxCell>
                <mxCell id="12" value="" style="edgeStyle=segmentEdgeStyle;endArrow=classic;html=1;" parent="1" source="4" target="17" edge="1">
                    <mxGeometry width="50" height="50" relative="1" as="geometry">
                        <mxPoint x="395" y="410" as="sourcePoint"/>
                        <mxPoint x="525" y="500" as="targetPoint"/>
                    </mxGeometry>
                </mxCell>
                <mxCell id="15" value="V" style="text;html=1;strokeColor=none;fillColor=none;align=center;verticalAlign=middle;whiteSpace=wrap;rounded=0;" parent="1" vertex="1">
                    <mxGeometry x="460" y="370" width="60" height="30" as="geometry"/>
                </mxCell>
                <mxCell id="16" value="F" style="text;html=1;strokeColor=none;fillColor=none;align=center;verticalAlign=middle;whiteSpace=wrap;rounded=0;" parent="1" vertex="1">
                    <mxGeometry x="325" y="370" width="60" height="30" as="geometry"/>
                </mxCell>
                <mxCell id="21" style="edgeStyle=none;html=1;" edge="1" parent="1" source="17" target="19">
                    <mxGeometry relative="1" as="geometry"/>
                </mxCell>
                <mxCell id="17" value="&lt;div&gt;x1=(-b-math.sqrt((b**2)-4*a*c))&lt;/div&gt;&lt;div&gt;x1=x1/(2*a)&lt;/div&gt;" style="rounded=0;whiteSpace=wrap;html=1;align=center;fillColor=#76608a;fontColor=#ffffff;strokeColor=#432D57;" vertex="1" parent="1">
                    <mxGeometry x="470" y="460" width="170" height="60" as="geometry"/>
                </mxCell>
                <mxCell id="22" style="edgeStyle=none;html=1;" edge="1" parent="1" source="19" target="20">
                    <mxGeometry relative="1" as="geometry"/>
                </mxCell>
                <mxCell id="19" value="&lt;div&gt;x2=(-b+math.sqrt((b**2)-4*a*c))&lt;/div&gt;&lt;div&gt;x2=x2/(2*a)&lt;/div&gt;" style="rounded=0;whiteSpace=wrap;html=1;fillColor=#76608a;fontColor=#ffffff;strokeColor=#432D57;" vertex="1" parent="1">
                    <mxGeometry x="465" y="540" width="180" height="50" as="geometry"/>
                </mxCell>
                <mxCell id="20" value="x1,x2" style="shape=document;whiteSpace=wrap;html=1;boundedLbl=1;fillColor=#1ba1e2;fontColor=#ffffff;strokeColor=#006EAF;" vertex="1" parent="1">
                    <mxGeometry x="495" y="620" width="120" height="80" as="geometry"/>
                </mxCell>
                <mxCell id="23" value="" style="edgeStyle=elbowEdgeStyle;elbow=vertical;endArrow=classic;html=1;" edge="1" parent="1" source="20" target="7">
                    <mxGeometry width="50" height="50" relative="1" as="geometry">
                        <mxPoint x="420" y="680" as="sourcePoint"/>
                        <mxPoint x="470" y="630" as="targetPoint"/>
                    </mxGeometry>
                </mxCell>
                <mxCell id="24" value="" style="edgeStyle=elbowEdgeStyle;elbow=vertical;endArrow=classic;html=1;" edge="1" parent="1" source="5" target="7">
                    <mxGeometry width="50" height="50" relative="1" as="geometry">
                        <mxPoint x="420" y="580" as="sourcePoint"/>
                        <mxPoint x="470" y="530" as="targetPoint"/>
                    </mxGeometry>
                </mxCell>
            </root>
        </mxGraphModel>
    </diagram>
</mxfile>